<mxfile host="app.diagrams.net" modified="2024-04-05T23:15:39.111Z" agent="Mozilla/5.0 (Windows NT 10.0; Win64; x64) AppleWebKit/537.36 (KHTML, like Gecko) Chrome/122.0.0.0 Safari/537.36 OPR/108.0.0.0" etag="chWnJltBwEPrgLJR1kxC" version="24.2.2" type="github">
  <diagram name="Page-1" id="e7e014a7-5840-1c2e-5031-d8a46d1fe8dd">
    <mxGraphModel dx="1380" dy="783" grid="1" gridSize="10" guides="1" tooltips="1" connect="1" arrows="1" fold="1" page="1" pageScale="1" pageWidth="1169" pageHeight="826" background="none" math="0" shadow="0">
      <root>
        <mxCell id="0" />
        <mxCell id="1" parent="0" />
        <mxCell id="c_FFXOvCavrH5ceKtot7-41" value="Técnico" style="swimlane;whiteSpace=wrap" vertex="1" parent="1">
          <mxGeometry x="160" y="128" width="280" height="570" as="geometry" />
        </mxCell>
        <mxCell id="c_FFXOvCavrH5ceKtot7-42" value="Seleciona unidade a ser consultada" style="whiteSpace=wrap;" vertex="1" parent="c_FFXOvCavrH5ceKtot7-41">
          <mxGeometry x="55.5" y="192" width="110" height="50" as="geometry" />
        </mxCell>
        <mxCell id="c_FFXOvCavrH5ceKtot7-43" value="App" style="swimlane;whiteSpace=wrap" vertex="1" parent="1">
          <mxGeometry x="444.5" y="128" width="280" height="570" as="geometry" />
        </mxCell>
        <mxCell id="c_FFXOvCavrH5ceKtot7-44" value="" style="ellipse;shape=startState;fillColor=#000000;strokeColor=#ff0000;" vertex="1" parent="c_FFXOvCavrH5ceKtot7-43">
          <mxGeometry x="125.5" y="40" width="30" height="30" as="geometry" />
        </mxCell>
        <mxCell id="c_FFXOvCavrH5ceKtot7-45" value="" style="edgeStyle=elbowEdgeStyle;elbow=horizontal;verticalAlign=bottom;endArrow=open;endSize=8;strokeColor=#FF0000;endFill=1;rounded=0" edge="1" parent="c_FFXOvCavrH5ceKtot7-43" source="c_FFXOvCavrH5ceKtot7-44" target="c_FFXOvCavrH5ceKtot7-46">
          <mxGeometry x="40" y="20" as="geometry">
            <mxPoint x="120.5" y="90" as="targetPoint" />
          </mxGeometry>
        </mxCell>
        <mxCell id="c_FFXOvCavrH5ceKtot7-46" value="Exibe Mapa das Unidades" style="whiteSpace=wrap;" vertex="1" parent="c_FFXOvCavrH5ceKtot7-43">
          <mxGeometry x="75.5" y="112" width="110" height="50" as="geometry" />
        </mxCell>
        <mxCell id="c_FFXOvCavrH5ceKtot7-47" value="Exibe planta do prédio" style="whiteSpace=wrap;" vertex="1" parent="c_FFXOvCavrH5ceKtot7-43">
          <mxGeometry x="85.5" y="235" width="110" height="50" as="geometry" />
        </mxCell>
        <mxCell id="c_FFXOvCavrH5ceKtot7-48" value="Exibe listagem de equipamentos" style="whiteSpace=wrap;" vertex="1" parent="c_FFXOvCavrH5ceKtot7-43">
          <mxGeometry x="85.5" y="382" width="110" height="50" as="geometry" />
        </mxCell>
        <mxCell id="c_FFXOvCavrH5ceKtot7-49" value="API" style="swimlane;whiteSpace=wrap" vertex="1" parent="1">
          <mxGeometry x="730" y="128" width="280" height="570" as="geometry" />
        </mxCell>
        <mxCell id="c_FFXOvCavrH5ceKtot7-50" value="Extrai informações sobre a unidade" style="whiteSpace=wrap;" vertex="1" parent="c_FFXOvCavrH5ceKtot7-49">
          <mxGeometry x="75.5" y="292" width="110" height="50" as="geometry" />
        </mxCell>
        <mxCell id="c_FFXOvCavrH5ceKtot7-51" value="" style="edgeStyle=elbowEdgeStyle;elbow=horizontal;strokeColor=#FF0000;endArrow=open;endFill=1;rounded=0;exitX=0;exitY=0.5;exitDx=0;exitDy=0;entryX=0.5;entryY=0;entryDx=0;entryDy=0;" edge="1" parent="1" source="c_FFXOvCavrH5ceKtot7-46" target="c_FFXOvCavrH5ceKtot7-42">
          <mxGeometry width="100" height="100" relative="1" as="geometry">
            <mxPoint x="515" y="190" as="sourcePoint" />
            <mxPoint x="270" y="300" as="targetPoint" />
            <Array as="points">
              <mxPoint x="270.5" y="280" />
            </Array>
          </mxGeometry>
        </mxCell>
        <mxCell id="c_FFXOvCavrH5ceKtot7-52" value="" style="endArrow=open;strokeColor=#FF0000;endFill=1;rounded=0;exitX=1;exitY=0.5;exitDx=0;exitDy=0;entryX=0.5;entryY=0;entryDx=0;entryDy=0;" edge="1" parent="1" source="c_FFXOvCavrH5ceKtot7-42" target="c_FFXOvCavrH5ceKtot7-47">
          <mxGeometry relative="1" as="geometry">
            <mxPoint x="480" y="355" as="targetPoint" />
            <Array as="points">
              <mxPoint x="585" y="345" />
            </Array>
          </mxGeometry>
        </mxCell>
        <mxCell id="c_FFXOvCavrH5ceKtot7-53" value="" style="endArrow=open;strokeColor=#FF0000;endFill=1;rounded=0;exitX=1;exitY=0.5;exitDx=0;exitDy=0;entryX=0.5;entryY=0;entryDx=0;entryDy=0;" edge="1" parent="1" source="c_FFXOvCavrH5ceKtot7-47" target="c_FFXOvCavrH5ceKtot7-50">
          <mxGeometry relative="1" as="geometry">
            <mxPoint x="660" y="370" as="sourcePoint" />
            <mxPoint x="919" y="395" as="targetPoint" />
            <Array as="points">
              <mxPoint x="860" y="388" />
            </Array>
          </mxGeometry>
        </mxCell>
        <mxCell id="c_FFXOvCavrH5ceKtot7-54" value="" style="endArrow=open;strokeColor=#FF0000;endFill=1;rounded=0;exitX=0.5;exitY=1;exitDx=0;exitDy=0;entryX=0.5;entryY=0;entryDx=0;entryDy=0;" edge="1" parent="1" source="c_FFXOvCavrH5ceKtot7-50" target="c_FFXOvCavrH5ceKtot7-48">
          <mxGeometry relative="1" as="geometry">
            <mxPoint x="660" y="497" as="sourcePoint" />
            <mxPoint x="620" y="470" as="targetPoint" />
            <Array as="points">
              <mxPoint x="860" y="490" />
              <mxPoint x="585" y="490" />
            </Array>
          </mxGeometry>
        </mxCell>
        <mxCell id="c_FFXOvCavrH5ceKtot7-55" value="Consulta de equipamentos em unidades" style="shape=umlFrame;whiteSpace=wrap;html=1;pointerEvents=0;width=250;height=30;" vertex="1" parent="1">
          <mxGeometry x="110" y="90" width="950" height="650" as="geometry" />
        </mxCell>
        <mxCell id="c_FFXOvCavrH5ceKtot7-56" value="" style="ellipse;html=1;shape=endState;fillColor=#000000;strokeColor=#ff0000;" vertex="1" parent="1">
          <mxGeometry x="570" y="630" width="30" height="30" as="geometry" />
        </mxCell>
        <mxCell id="c_FFXOvCavrH5ceKtot7-57" value="" style="endArrow=open;strokeColor=#FF0000;endFill=1;rounded=0;exitX=0.5;exitY=1;exitDx=0;exitDy=0;entryX=0.5;entryY=0;entryDx=0;entryDy=0;" edge="1" parent="1" source="c_FFXOvCavrH5ceKtot7-48" target="c_FFXOvCavrH5ceKtot7-56">
          <mxGeometry relative="1" as="geometry">
            <mxPoint x="906" y="560" as="sourcePoint" />
            <mxPoint x="630" y="600" as="targetPoint" />
            <Array as="points" />
          </mxGeometry>
        </mxCell>
        <mxCell id="c_FFXOvCavrH5ceKtot7-58" value="&amp;lt;&amp;lt;Precondição&amp;gt;&amp;gt;&lt;div&gt;Ter executado a inicialização do App com sucesso&lt;/div&gt;&lt;div&gt;Conectividade com os Servidores&lt;/div&gt;" style="shape=note;size=20;whiteSpace=wrap;html=1;" vertex="1" parent="1">
          <mxGeometry x="170" y="160" width="230" height="70" as="geometry" />
        </mxCell>
      </root>
    </mxGraphModel>
  </diagram>
</mxfile>
